<?xml version="1.0" encoding="UTF-8"?>
<svg xmlns="http://www.w3.org/2000/svg" viewBox="0 0 24 24">
<g id="surface2488025">
<path style=" stroke:none;fill-rule:nonzero;fill:rgb(56.078434%,56.078434%,56.078434%);fill-opacity:1;" d="M 12 2 C 6.488281 2 2 6.488281 2 12 C 2 17.511719 6.488281 22 12 22 C 13.234375 22 14.421875 21.777344 15.515625 21.367188 C 15.855469 21.246094 16.105469 20.949219 16.167969 20.59375 C 16.230469 20.234375 16.09375 19.871094 15.8125 19.644531 C 15.53125 19.417969 15.148438 19.359375 14.8125 19.492188 C 13.9375 19.820312 12.992188 20 12 20 C 7.570312 20 4 16.429688 4 12 C 4 7.570312 7.570312 4 12 4 C 16.429688 4 20 7.570312 20 12 L 20 13 C 20 14.117188 19.117188 15 18 15 C 16.882812 15 16 14.117188 16 13 L 16 8 C 16.003906 7.472656 15.597656 7.035156 15.074219 6.996094 C 14.550781 6.957031 14.082031 7.332031 14.011719 7.851562 C 13.300781 7.316406 12.441406 7 11.5 7 C 8.949219 7 7 9.320312 7 12 C 7 14.679688 8.949219 17 11.5 17 C 12.828125 17 13.988281 16.367188 14.800781 15.386719 C 15.535156 16.363281 16.695312 17 18 17 C 20.199219 17 22 15.199219 22 13 L 22 12 C 22 6.488281 17.511719 2 12 2 Z M 11.5 9 C 12.808594 9 14 10.269531 14 12 C 14 13.730469 12.808594 15 11.5 15 C 10.191406 15 9 13.730469 9 12 C 9 10.269531 10.191406 9 11.5 9 Z M 11.5 9 "/>
</g>
</svg>
