<?xml version="1.0" encoding="UTF-8"?>
<svg xmlns="http://www.w3.org/2000/svg" viewBox="0 0 24 24">
<g id="surface2654923">
<path style=" stroke:none;fill-rule:nonzero;fill:rgb(56.078434%,56.078434%,56.078434%);fill-opacity:1;" d="M 12 1 C 8.675781 1 6 3.675781 6 7 L 6 8 C 4.90625 8 4 8.90625 4 10 L 4 20 C 4 21.09375 4.90625 22 6 22 L 18 22 C 19.09375 22 20 21.09375 20 20 L 20 10 C 20 8.90625 19.09375 8 18 8 L 18 7 C 18 3.675781 15.324219 1 12 1 Z M 12 3 C 14.277344 3 16 4.722656 16 7 L 16 8 L 8 8 L 8 7 C 8 4.722656 9.722656 3 12 3 Z M 6 10 L 18 10 L 18 20 L 6 20 Z M 12 13 C 10.898438 13 10 13.898438 10 15 C 10 16.101562 10.898438 17 12 17 C 13.101562 17 14 16.101562 14 15 C 14 13.898438 13.101562 13 12 13 Z M 12 13 "/>
</g>
</svg>
